<?xml version="1.0" standalone="no"?><!DOCTYPE svg PUBLIC "-//W3C//DTD SVG 1.1//EN" "http://www.w3.org/Graphics/SVG/1.1/DTD/svg11.dtd"><svg t="1593420806838" class="icon" viewBox="0 0 1024 1024" version="1.1" xmlns="http://www.w3.org/2000/svg" p-id="2977" xmlns:xlink="http://www.w3.org/1999/xlink" width="200" height="200"><defs><style type="text/css"></style></defs><path d="M511.790222 945.828616c-239.028978 0-433.489902-194.470133-433.489902-433.491948 0-239.019769 194.460923-433.489902 433.489902-433.489902 239.031025 0 433.491948 194.470133 433.491948 433.489902C945.282171 751.358483 750.821247 945.828616 511.790222 945.828616zM511.790222 108.577904c-222.623333 0-403.758764 181.099614-403.758764 403.758764 0 222.661196 181.13543 403.76081 403.758764 403.76081s403.76081-181.099614 403.76081-403.76081C915.552056 289.678542 734.413556 108.577904 511.790222 108.577904z" p-id="2978" fill="#ffffff"></path><path d="M511.790222 945.828616c-105.45068 0-207.125361-38.389332-286.293445-108.12151l-10.940167-9.609869L223.954655 816.982086c27.786857-32.959669 76.94137-60.45079 138.374534-77.343529 22.00927-8.766664 32.602535-14.582113 40.534182-22.523993 8.473999-8.455579 13.150508-16.433274 14.773472-25.14468 1.101077-6.016017 0.816598-37.692461-0.054235-65.771983-15.241123-17.276479-28.510334-42.990117-41.258683-80.094176-13.094226-6.841825-24.769127-23.641443-28.281113-42.092677-3.714602-19.808138-1.596358-36.461423 5.373381-46.421262-16.204054-95.209432-5.722328-165.93217 31.244608-210.244398 28.823466-34.590819 72.951499-52.123125 131.166365-52.123125l5.198395-0.074701c48.457642 0 59.600423 10.162454 70.082148 24.449855 2.036379 2.787486 3.65832 5.007037 6.124488 7.023974 26.797319 0.037862 49.03581 10.784624 64.340377 31.069623 29.061896 38.497802 32.573883 112.174825 9.758248 198.469214 8.068769 9.867742 10.29753 27.676339 5.602601 48.89664-4.419659 19.681248-18.323321 37.32407-32.317033 42.680055-10.335393 33.967626-20.871353 59.737546-37.508265 79.08622l0 62.030775c1.825578 13.71742 7.052626 18.780739 16.516162 27.969005l6.30152 6.272867c5.92392 4.732791 11.149944 7.243985 34.608216 17.588587 58.84727 16.251126 107.507526 43.615357 135.065162 76.298733l9.371438 11.115152-10.913561 9.609869C718.879768 907.440307 617.20611 945.828616 511.790222 945.828616zM256.914324 825.40185c71.91489 58.580187 161.822572 90.696652 254.876921 90.696652 93.053326 0 182.934402-32.116465 254.850315-90.696652-24.99937-23.514553-64.101947-43.376926-112.091938-56.785308-26.136264-11.334139-34.260292-15.09479-44.716434-23.696702l-6.931876-6.767124c-10.921747-10.602476-22.182208-21.570271-25.41074-47.468105l-0.110517-75.601862 4.145413-4.291746c16.497743-17.130146 26.915-44.952818 37.517475-81.471546l6.005784-20.632923 12.104689 9.078773c3.604084-3.374864 8.741082-10.216689 10.748808-19.166525 2.439562-11.023054 1.825578-18.892279 0.926092-22.35924l-11.32493-3.594875 2.38328-14.287401c23.01825-80.554664 22.23849-150.616346-2.036379-182.786023-9.746992-12.94994-23.081695-19.222807-40.72554-19.222807l-8.080026 0.294712-3.824095-2.257413c-9.701966-5.758144-14.553461-12.378935-18.0941-17.203824-5.025457-6.877641-8.995885-12.305257-46.099944-12.305257l-4.997827 0.054235c-49.180096 0-85.615936 13.939477-108.551298 41.431621-32.04995 38.480406-39.919175 103.681384-23.403013 193.865359l2.706645 14.856359-9.876951 1.632173c-0.953721 3.705392-1.622964 11.298324 0.348947 21.770839 2.264577 11.958356 10.252505 20.412912 12.893658 21.606087l11.178597-0.476861 0.89744 10.30674c13.123902 39.689954 26.01756 65.020876 40.590464 79.765695l4.090155 4.109598 0.200568 5.812379c0.521886 15.039531 2.064009 65.148789-0.229221 77.748758-2.732228 14.690584-10.252505 28.042683-22.989597 40.772612-12.574387 12.599969-28.016077 20.137643-52.144614 29.65746C321.888128 781.584901 282.171568 801.648866 256.914324 825.40185z" p-id="2979" fill="#ffffff"></path></svg>